<svg width="24" height="25" viewBox="0 0 24 25" fill="none" xmlns="http://www.w3.org/2000/svg">
<path d="M9 10.25H15" stroke="#101C17" stroke-width="1.5" stroke-linecap="round" stroke-linejoin="round"/>
<path d="M9 13.25H15" stroke="#101C17" stroke-width="1.5" stroke-linecap="round" stroke-linejoin="round"/>
<path d="M14.0315 18.8641L12.6431 21.1781C12.5765 21.2891 12.4822 21.3811 12.3695 21.4449C12.2568 21.5087 12.1295 21.5422 12 21.5422C11.8705 21.5422 11.7432 21.5087 11.6305 21.4449C11.5178 21.3811 11.4235 21.2891 11.3569 21.1781L9.96848 18.8641C9.90184 18.753 9.80758 18.6611 9.69488 18.5973C9.58218 18.5335 9.45487 18.5 9.32536 18.5H3.75C3.55109 18.5 3.36032 18.4209 3.21967 18.2803C3.07902 18.1396 3 17.9489 3 17.75V5.75C3 5.55109 3.07902 5.36032 3.21967 5.21967C3.36032 5.07902 3.55109 5 3.75 5H20.25C20.4489 5 20.6397 5.07902 20.7803 5.21967C20.921 5.36032 21 5.55109 21 5.75V17.75C21 17.9489 20.921 18.1397 20.7803 18.2803C20.6397 18.421 20.4489 18.5 20.25 18.5L14.6747 18.5C14.5451 18.5 14.4178 18.5335 14.3051 18.5973C14.1924 18.6611 14.0982 18.753 14.0315 18.8641V18.8641Z" stroke="#101C17" stroke-width="1.5" stroke-linecap="round" stroke-linejoin="round"/>
</svg>
