<svg width="16" height="16" viewBox="0 0 16 16" fill="none" xmlns="http://www.w3.org/2000/svg">
<path d="M8.66634 7.33331H10.6663C10.8432 7.33331 11.0127 7.40355 11.1377 7.52858C11.2628 7.6536 11.333 7.82317 11.333 7.99998C11.333 8.17679 11.2628 8.34636 11.1377 8.47138C11.0127 8.59641 10.8432 8.66665 10.6663 8.66665H7.99967C7.82286 8.66665 7.65329 8.59641 7.52827 8.47138C7.40325 8.34636 7.33301 8.17679 7.33301 7.99998V5.33331C7.33301 5.1565 7.40325 4.98693 7.52827 4.86191C7.65329 4.73688 7.82286 4.66665 7.99967 4.66665C8.17649 4.66665 8.34606 4.73688 8.47108 4.86191C8.5961 4.98693 8.66634 5.1565 8.66634 5.33331V7.33331Z" fill="#038233"/>
<path fill-rule="evenodd" clip-rule="evenodd" d="M4.29588 2.45685C5.3922 1.72431 6.68114 1.33331 7.99968 1.33331C8.87516 1.33331 9.74206 1.50575 10.5509 1.84078C11.3597 2.17581 12.0947 2.66688 12.7137 3.28593C13.3328 3.90499 13.8238 4.63992 14.1589 5.44876C14.4939 6.25759 14.6663 7.1245 14.6663 7.99998C14.6663 9.31852 14.2754 10.6075 13.5428 11.7038C12.8103 12.8001 11.7691 13.6546 10.5509 14.1592C9.33273 14.6638 7.99228 14.7958 6.69908 14.5385C5.40587 14.2813 4.21798 13.6464 3.28563 12.714C2.35328 11.7817 1.71834 10.5938 1.46111 9.30058C1.20387 8.00738 1.3359 6.66693 1.84048 5.44876C2.34506 4.23058 3.19955 3.18939 4.29588 2.45685ZM5.03664 12.4345C5.9137 13.0205 6.94484 13.3333 7.99968 13.3333C9.41417 13.3333 10.7707 12.7714 11.7709 11.7712C12.7711 10.771 13.333 9.41447 13.333 7.99998C13.333 6.94515 13.0202 5.914 12.4342 5.03694C11.8481 4.15988 11.0152 3.47629 10.0407 3.07262C9.06612 2.66895 7.99376 2.56334 6.9592 2.76912C5.92463 2.97491 4.97432 3.48286 4.22844 4.22874C3.48256 4.97462 2.97461 5.92493 2.76882 6.9595C2.56304 7.99406 2.66865 9.06642 3.07232 10.041C3.47599 11.0155 4.15957 11.8484 5.03664 12.4345Z" fill="#038233"/>
</svg>
