<svg width="33" height="34" viewBox="0 0 33 34" fill="none" xmlns="http://www.w3.org/2000/svg">
<rect y="0.763184" width="33" height="33" rx="9" fill="#0F4D00"/>
<path d="M27.5673 16.4173L25.25 17.576L22.25 11.8308L24.5909 10.6604C24.7667 10.5724 24.9701 10.5571 25.1572 10.6176C25.3443 10.6781 25.5001 10.8097 25.5911 10.984L27.8967 15.3994C27.9428 15.4877 27.9708 15.5842 27.9792 15.6835C27.9876 15.7827 27.9761 15.8827 27.9454 15.9774C27.9148 16.0722 27.8655 16.1599 27.8006 16.2354C27.7357 16.311 27.6564 16.3728 27.5673 16.4173V16.4173Z" stroke="white" stroke-width="1.5" stroke-linecap="round" stroke-linejoin="round"/>
<path d="M8.75042 17.4755L6.43314 16.3168C6.34406 16.2723 6.26474 16.2104 6.19981 16.1349C6.13488 16.0594 6.08565 15.9717 6.05498 15.8769C6.02432 15.7821 6.01284 15.6822 6.02121 15.583C6.02958 15.4837 6.05763 15.3871 6.10374 15.2988L8.40932 10.8835C8.50034 10.7092 8.65616 10.5776 8.84323 10.5171C9.03031 10.4565 9.23368 10.4719 9.40955 10.5598L11.7504 11.7303L8.75042 17.4755Z" stroke="white" stroke-width="1.5" stroke-linecap="round" stroke-linejoin="round"/>
<path d="M25.25 17.5759L23.75 19.3308L20.3003 22.7805C20.2087 22.8721 20.095 22.9384 19.9701 22.9729C19.8453 23.0075 19.7137 23.0092 19.588 22.9778L14.1546 21.6194C14.0527 21.5939 13.9572 21.5473 13.8745 21.4826L8.75 17.4755" stroke="white" stroke-width="1.5" stroke-linecap="round" stroke-linejoin="round"/>
<path d="M23.7498 19.3308L19.6248 16.3308L18.4248 17.2308C17.9055 17.6202 17.2739 17.8308 16.6248 17.8308C15.9757 17.8308 15.3441 17.6202 14.8248 17.2308L14.3166 16.8496C14.2306 16.7851 14.1595 16.7029 14.1081 16.6086C14.0567 16.5142 14.0261 16.41 14.0185 16.3028C14.0109 16.1956 14.0264 16.088 14.0639 15.9873C14.1015 15.8867 14.1603 15.7953 14.2363 15.7193L17.9051 12.0504C17.9748 11.9808 18.0574 11.9255 18.1484 11.8878C18.2394 11.8501 18.337 11.8307 18.4355 11.8307H22.2498" stroke="white" stroke-width="1.5" stroke-linecap="round" stroke-linejoin="round"/>
<path d="M11.8037 11.7303L16.615 10.3276C16.7868 10.2775 16.971 10.2906 17.1341 10.3644L20.3749 11.8308" stroke="white" stroke-width="1.5" stroke-linecap="round" stroke-linejoin="round"/>
<path d="M15.5 24.9558L12.6744 24.2494C12.5598 24.2207 12.4535 24.1654 12.3643 24.0878L10.25 22.25" stroke="white" stroke-width="1.5" stroke-linecap="round" stroke-linejoin="round"/>
</svg>
