<svg width="33" height="34" viewBox="0 0 33 34" fill="none" xmlns="http://www.w3.org/2000/svg">
<rect y="0.763184" width="33" height="33" rx="9" fill="#0F4D00"/>
<path opacity="0.2" d="M11.1098 15.1325L8.01603 17.5081C8.00665 17.3394 8.00197 17.1706 8.00197 17C7.9983 14.9459 8.70028 12.9528 9.9904 11.3544L11.1098 15.1325ZM9.39884 21.8206C10.6226 23.7483 12.5325 25.1395 14.7426 25.7131L13.3645 21.8206H9.39884ZM19.2623 25.7131C21.4723 25.1395 23.3823 23.7483 24.606 21.8206H20.6404L19.2623 25.7131ZM24.0098 11.3544L22.8904 15.1325L25.9842 17.5081C25.9935 17.3394 25.9982 17.1706 25.9982 17C26.0019 14.9459 25.2999 12.9528 24.0098 11.3544ZM20.3985 8.66376C18.2193 7.77875 15.7809 7.77875 13.6017 8.66376L17.0001 11L20.3985 8.66376ZM19.3176 20L20.7501 15.8281L17.0001 13.25L13.2501 15.8281L14.6826 20H19.3176Z" fill="white"/>
<path d="M17 7.25C15.0716 7.25 13.1866 7.82183 11.5832 8.89317C9.97982 9.96451 8.73013 11.4873 7.99218 13.2688C7.25422 15.0504 7.06114 17.0108 7.43735 18.9021C7.81355 20.7934 8.74215 22.5307 10.1057 23.8943C11.4693 25.2579 13.2066 26.1865 15.0979 26.5627C16.9892 26.9389 18.9496 26.7458 20.7312 26.0078C22.5127 25.2699 24.0355 24.0202 25.1068 22.4168C26.1782 20.8134 26.75 18.9284 26.75 17C26.7473 14.415 25.7192 11.9366 23.8913 10.1087C22.0634 8.28084 19.585 7.25273 17 7.25ZM24.1738 21.0706H21.0219L20.1538 19.8744L21.3378 16.4262L22.7441 15.9678L25.2041 17.855C25.0877 18.9868 24.7368 20.0819 24.1738 21.0706ZM8.79875 17.855L11.2541 15.9688L12.6603 16.4272L13.8444 19.8753L12.9781 21.0706H9.82625C9.26258 20.0821 8.91105 18.9869 8.79407 17.855H8.79875ZM9.73625 13.1075L10.2528 14.8513L8.81657 15.9472C8.9439 14.9528 9.25277 13.9903 9.72782 13.1075H9.73625ZM15.2188 19.25L14.1444 16.1234L17 14.1603L19.8556 16.1234L18.7813 19.25H15.2188ZM23.7566 14.8513L24.2731 13.1075C24.7482 13.9903 25.057 14.9528 25.1844 15.9472L23.7566 14.8513ZM23.1753 11.5344L22.2838 14.5419L20.8709 15.0003L17.75 12.8553V11.3947L20.4772 9.51969C21.5044 10.0001 22.4223 10.6857 23.1744 11.5344H23.1753ZM18.6941 8.92531L17 10.0897L15.3059 8.92531C16.4232 8.69156 17.5768 8.69156 18.6941 8.92531ZM13.5228 9.51969L16.25 11.3947V12.8553L13.13 15.0003L11.7172 14.5419L10.8256 11.5344C11.5777 10.6857 12.4956 10.0001 13.5228 9.51969ZM10.9203 22.5706H12.83L13.5022 24.4709C12.5261 24.0116 11.6491 23.3661 10.9203 22.5706ZM15.3125 25.0747L14.1988 21.9416L15.0641 20.75H18.9359L19.8013 21.9416L18.6922 25.0747C17.5762 25.3086 16.4238 25.3086 15.3078 25.0747H15.3125ZM20.5025 24.4709L21.1747 22.5706H23.0844C22.3543 23.3666 21.4756 24.0121 20.4978 24.4709H20.5025Z" fill="white"/>
</svg>
