<svg width="20" height="21" viewBox="0 0 20 21" fill="none" xmlns="http://www.w3.org/2000/svg">
<path d="M1.25 15.5L6.25 16.5L7 15M12.25 19.5V15.5L8.25 12.5L9.25 6.5M9.25 2.5C9.25 2.76522 9.35536 3.01957 9.54289 3.20711C9.73043 3.39464 9.98478 3.5 10.25 3.5C10.5152 3.5 10.7696 3.39464 10.9571 3.20711C11.1446 3.01957 11.25 2.76522 11.25 2.5C11.25 2.23478 11.1446 1.98043 10.9571 1.79289C10.7696 1.60536 10.5152 1.5 10.25 1.5C9.98478 1.5 9.73043 1.60536 9.54289 1.79289C9.35536 1.98043 9.25 2.23478 9.25 2.5Z" stroke="#038233" stroke-width="2" stroke-linecap="round" stroke-linejoin="round"/>
<path d="M4.25 10.5V7.5L9.25 6.5L12.25 9.5L15.25 10.5" stroke="#038233" stroke-width="2" stroke-linecap="round" stroke-linejoin="round"/>
<path d="M17.75 18.5C17.8826 18.5 18.0098 18.4473 18.1036 18.3536C18.1973 18.2598 18.25 18.1326 18.25 18C18.25 17.8674 18.1973 17.7402 18.1036 17.6464C18.0098 17.5527 17.8826 17.5 17.75 17.5C17.6174 17.5 17.4902 17.5527 17.3964 17.6464C17.3027 17.7402 17.25 17.8674 17.25 18C17.25 18.1326 17.3027 18.2598 17.3964 18.3536C17.4902 18.4473 17.6174 18.5 17.75 18.5Z" fill="#038233" stroke="#038233" stroke-width="2" stroke-linecap="round" stroke-linejoin="round"/>
</svg>
