<svg width="21" height="20" viewBox="0 0 21 20" fill="none" xmlns="http://www.w3.org/2000/svg">
<path d="M8.96583 11.8L6.82691 9.65C6.64452 9.46667 6.41239 9.375 6.13052 9.375C5.84864 9.375 5.61651 9.46667 5.43412 9.65C5.25174 9.83333 5.16054 10.0667 5.16054 10.35C5.16054 10.6333 5.25174 10.8667 5.43412 11.05L8.26943 13.9C8.4684 14.1 8.70053 14.2 8.96583 14.2C9.23112 14.2 9.46325 14.1 9.66222 13.9L15.2831 8.25C15.4655 8.06667 15.5567 7.83333 15.5567 7.55C15.5567 7.26667 15.4655 7.03333 15.2831 6.85C15.1007 6.66667 14.8686 6.575 14.5867 6.575C14.3048 6.575 14.0727 6.66667 13.8903 6.85L8.96583 11.8ZM10.3586 20C8.98241 20 7.68911 19.7373 6.47871 19.212C5.26832 18.6867 4.21544 17.9743 3.32008 17.075C2.42472 16.175 1.71606 15.1167 1.19409 13.9C0.672132 12.6833 0.410819 11.3833 0.410156 10C0.410156 8.61667 0.671469 7.31667 1.19409 6.1C1.71672 4.88333 2.42538 3.825 3.32008 2.925C4.21544 2.025 5.26832 1.31267 6.47871 0.788C7.68911 0.263333 8.98241 0.000666667 10.3586 0C11.7348 0 13.0281 0.262667 14.2385 0.788C15.4489 1.31333 16.5018 2.02567 17.3971 2.925C18.2925 3.825 19.0015 4.88333 19.5241 6.1C20.0467 7.31667 20.3077 8.61667 20.3071 10C20.3071 11.3833 20.0457 12.6833 19.5231 13.9C19.0005 15.1167 18.2918 16.175 17.3971 17.075C16.5018 17.975 15.4489 18.6877 14.2385 19.213C13.0281 19.7383 11.7348 20.0007 10.3586 20Z" fill="#23B537"/>
</svg>
