<svg width="26" height="25" viewBox="0 0 26 25" fill="none" xmlns="http://www.w3.org/2000/svg">
<path d="M13.55 10.2275V15.0685H20.4147C20.1132 16.6253 19.2087 17.9435 17.852 18.8299L21.9916 21.9776C24.4035 19.7959 25.795 16.5913 25.795 12.7845C25.795 11.8981 25.7139 11.0458 25.5631 10.2277L13.55 10.2275Z" fill="#4285F4"/>
<path d="M6.40155 14.8789L5.46791 15.5793L2.16309 18.102C4.2619 22.1815 8.56358 24.9997 13.5497 24.9997C16.9935 24.9997 19.8808 23.8861 21.9913 21.977L17.8516 18.8293C16.7152 19.5793 15.2658 20.0339 13.5497 20.0339C10.2333 20.0339 7.41567 17.8407 6.40677 14.8861L6.40155 14.8789Z" fill="#34A853"/>
<path d="M2.16311 6.89746C1.29348 8.57921 0.794922 10.477 0.794922 12.4997C0.794922 14.5223 1.29348 16.4201 2.16311 18.1019C2.16311 18.1131 6.4072 14.8746 6.4072 14.8746C6.1521 14.1246 6.00131 13.3292 6.00131 12.4995C6.00131 11.6699 6.1521 10.8745 6.4072 10.1245L2.16311 6.89746Z" fill="#FBBC05"/>
<path d="M13.5499 4.97727C15.4285 4.97727 17.0982 5.61362 18.4317 6.84091L22.0843 3.26141C19.8695 1.23871 16.9939 0 13.5499 0C8.56384 0 4.2619 2.80681 2.16309 6.89774L6.40705 10.125C7.41581 7.17043 10.2336 4.97727 13.5499 4.97727Z" fill="#EA4335"/>
</svg>
