<svg width="21" height="20" viewBox="0 0 21 20" fill="none" xmlns="http://www.w3.org/2000/svg">
<path d="M10.1909 0C15.7139 0 20.1909 4.477 20.1909 10C20.1909 15.523 15.7139 20 10.1909 20C4.66792 20 0.190918 15.523 0.190918 10C0.190918 4.477 4.66792 0 10.1909 0ZM8.06992 6.464C7.89038 6.28275 7.64835 6.17697 7.39337 6.16832C7.13839 6.15967 6.88975 6.2488 6.69834 6.41747C6.50692 6.58613 6.38722 6.82159 6.36371 7.07562C6.34021 7.32966 6.4147 7.58308 6.57192 7.784L6.65592 7.879L8.77592 9.999L6.65592 12.121C6.47466 12.3005 6.36889 12.5426 6.36024 12.7975C6.35158 13.0525 6.44071 13.3012 6.60938 13.4926C6.77805 13.684 7.0135 13.8037 7.26754 13.8272C7.52158 13.8507 7.775 13.7762 7.97592 13.619L8.06992 13.536L10.1909 11.414L12.3119 13.536C12.4915 13.7173 12.7335 13.823 12.9885 13.8317C13.2434 13.8403 13.4921 13.7512 13.6835 13.5825C13.8749 13.4139 13.9946 13.1784 14.0181 12.9244C14.0416 12.6703 13.9671 12.4169 13.8099 12.216L13.7269 12.121L11.6049 10L13.7269 7.879C13.9082 7.69946 14.014 7.45743 14.0226 7.20245C14.0313 6.94748 13.9421 6.69883 13.7735 6.50742C13.6048 6.31601 13.3693 6.1963 13.1153 6.1728C12.8613 6.14929 12.6078 6.22378 12.4069 6.381L12.3119 6.464L10.1909 8.586L8.06992 6.464Z" fill="#F93921"/>
</svg>
