<svg width="33" height="34" viewBox="0 0 33 34" fill="none" xmlns="http://www.w3.org/2000/svg">
<rect y="0.763184" width="33" height="33" rx="9" fill="#0F4D00"/>
<path d="M17 26C21.9706 26 26 21.9706 26 17C26 12.0294 21.9706 8 17 8C12.0294 8 8 12.0294 8 17C8 21.9706 12.0294 26 17 26Z" stroke="white" stroke-width="1.5" stroke-miterlimit="10"/>
<path d="M17 20C19.0711 20 20.75 18.3211 20.75 16.25C20.75 14.1789 19.0711 12.5 17 12.5C14.9289 12.5 13.25 14.1789 13.25 16.25C13.25 18.3211 14.9289 20 17 20Z" stroke="white" stroke-width="1.5" stroke-miterlimit="10"/>
<path d="M10.9814 23.6913C11.5464 22.5806 12.4077 21.6478 13.47 20.9963C14.5323 20.3448 15.7541 20 17.0003 20C18.2464 20 19.4683 20.3448 20.5306 20.9963C21.5929 21.6478 22.4542 22.5806 23.0191 23.6913" stroke="white" stroke-width="1.5" stroke-linecap="round" stroke-linejoin="round"/>
</svg>
