<svg width="33" height="34" viewBox="0 0 33 34" fill="none" xmlns="http://www.w3.org/2000/svg">
<rect y="0.763184" width="33" height="33" rx="9" fill="#0F4D00"/>
<path d="M25.0625 19.2207L23.7832 18.127C23.8438 17.7559 23.875 17.377 23.875 16.998C23.875 16.6191 23.8438 16.2402 23.7832 15.8691L25.0625 14.7754C25.159 14.6928 25.2281 14.5828 25.2605 14.46C25.2929 14.3372 25.2872 14.2074 25.2441 14.0879L25.2266 14.0371C24.8744 13.0528 24.347 12.1403 23.6699 11.3437L23.6348 11.3027C23.5526 11.2062 23.4432 11.1367 23.3208 11.1036C23.1984 11.0705 23.0689 11.0752 22.9492 11.1172L21.3613 11.6816C20.7754 11.2012 20.1211 10.8223 19.4141 10.5566L19.1074 8.89648C19.0843 8.77157 19.0237 8.65665 18.9337 8.56699C18.8437 8.47733 18.7285 8.41718 18.6035 8.39453L18.5508 8.38477C17.5332 8.20117 16.4629 8.20117 15.4453 8.38477L15.3926 8.39453C15.2676 8.41718 15.1524 8.47733 15.0624 8.56699C14.9724 8.65665 14.9118 8.77157 14.8887 8.89648L14.5801 10.5645C13.8787 10.8301 13.2255 11.2088 12.6465 11.6855L11.0469 11.1172C10.9273 11.0749 10.7976 11.07 10.6752 11.1031C10.5527 11.1363 10.4433 11.2059 10.3613 11.3027L10.3262 11.3437C9.6499 12.1409 9.12261 13.0532 8.76954 14.0371L8.75196 14.0879C8.66407 14.332 8.73633 14.6055 8.9336 14.7754L10.2285 15.8809C10.168 16.248 10.1387 16.623 10.1387 16.9961C10.1387 17.3711 10.168 17.7461 10.2285 18.1113L8.9336 19.2168C8.8371 19.2994 8.76804 19.4094 8.7356 19.5322C8.70315 19.655 8.70886 19.7848 8.75196 19.9043L8.76954 19.9551C9.12305 20.9395 9.64649 21.8477 10.3262 22.6484L10.3613 22.6895C10.4435 22.786 10.5529 22.8555 10.6753 22.8886C10.7977 22.9217 10.9272 22.917 11.0469 22.875L12.6465 22.3066C13.2285 22.7852 13.8789 23.1641 14.5801 23.4277L14.8887 25.0957C14.9118 25.2206 14.9724 25.3355 15.0624 25.4252C15.1524 25.5149 15.2676 25.575 15.3926 25.5977L15.4453 25.6074C16.4722 25.792 17.5239 25.792 18.5508 25.6074L18.6035 25.5977C18.7285 25.575 18.8437 25.5149 18.9337 25.4252C19.0237 25.3355 19.0843 25.2206 19.1074 25.0957L19.4141 23.4355C20.1208 23.1706 20.7788 22.7905 21.3613 22.3105L22.9492 22.875C23.0688 22.9173 23.1985 22.9222 23.3209 22.8891C23.4434 22.8559 23.5528 22.7863 23.6348 22.6895L23.6699 22.6484C24.3496 21.8457 24.8731 20.9395 25.2266 19.9551L25.2441 19.9043C25.332 19.6641 25.2598 19.3906 25.0625 19.2207ZM22.3965 16.0996C22.4453 16.3945 22.4707 16.6973 22.4707 17C22.4707 17.3027 22.4453 17.6055 22.3965 17.9004L22.2676 18.6836L23.7266 19.9316C23.5054 20.4412 23.2262 20.9235 22.8945 21.3691L21.082 20.7266L20.4688 21.2305C20.002 21.6133 19.4824 21.9141 18.9199 22.125L18.1758 22.4043L17.8262 24.2988C17.2746 24.3613 16.7176 24.3613 16.166 24.2988L15.8164 22.4004L15.0781 22.1172C14.5215 21.9062 14.0039 21.6055 13.541 21.2246L12.9277 20.7188L11.1035 21.3672C10.7715 20.9199 10.4941 20.4375 10.2715 19.9297L11.7461 18.6699L11.6191 17.8887C11.5723 17.5977 11.5469 17.2969 11.5469 17C11.5469 16.7012 11.5703 16.4023 11.6191 16.1113L11.7461 15.3301L10.2715 14.0703C10.4922 13.5605 10.7715 13.0801 11.1035 12.6328L12.9277 13.2812L13.541 12.7754C14.0039 12.3945 14.5215 12.0938 15.0781 11.8828L15.8184 11.6035L16.168 9.70508C16.7168 9.64258 17.2773 9.64258 17.8281 9.70508L18.1777 11.5996L18.9219 11.8789C19.4824 12.0898 20.0039 12.3906 20.4707 12.7734L21.084 13.2773L22.8965 12.6348C23.2285 13.082 23.5059 13.5645 23.7285 14.0723L22.2695 15.3203L22.3965 16.0996ZM17 13.3672C15.1016 13.3672 13.5625 14.9062 13.5625 16.8047C13.5625 18.7031 15.1016 20.2422 17 20.2422C18.8984 20.2422 20.4375 18.7031 20.4375 16.8047C20.4375 14.9062 18.8984 13.3672 17 13.3672ZM18.5469 18.3516C18.344 18.555 18.1029 18.7164 17.8374 18.8263C17.5719 18.9363 17.2873 18.9926 17 18.9922C16.416 18.9922 15.8672 18.7637 15.4531 18.3516C15.2497 18.1487 15.0883 17.9076 14.9784 17.6421C14.8684 17.3766 14.8121 17.092 14.8125 16.8047C14.8125 16.2207 15.041 15.6719 15.4531 15.2578C15.8672 14.8437 16.416 14.6172 17 14.6172C17.584 14.6172 18.1328 14.8437 18.5469 15.2578C18.7503 15.4607 18.9117 15.7018 19.0216 15.9673C19.1316 16.2328 19.188 16.5174 19.1875 16.8047C19.1875 17.3887 18.959 17.9375 18.5469 18.3516Z" fill="white"/>
</svg>
