<svg width="25" height="25" viewBox="0 0 25 25" fill="none" xmlns="http://www.w3.org/2000/svg">
<path d="M19.8211 5.42898C18.8955 4.49604 17.7941 3.75598 16.5805 3.25167C15.3669 2.74736 14.0653 2.4888 12.7511 2.49098C11.4367 2.48892 10.1348 2.74752 8.92094 3.25182C7.70705 3.75612 6.6052 4.49611 5.67913 5.42898C1.78013 9.32698 1.78013 15.672 5.67913 19.571C6.60522 20.5041 7.70721 21.2442 8.9213 21.7486C10.1354 22.2529 11.4375 22.5113 12.7521 22.509C14.0663 22.5113 15.3678 22.2529 16.5814 21.7488C17.7949 21.2446 18.8965 20.5047 19.8221 19.572C23.7211 15.674 23.7211 9.32898 19.8211 5.42898ZM12.9311 4.49998H12.5721C12.6331 4.49898 12.6911 4.49098 12.7521 4.49098C12.8131 4.49098 12.8701 4.49898 12.9311 4.49998ZM18.9931 17.5H16.7501L15.4921 20.016C14.6146 20.3402 13.6867 20.5071 12.7511 20.509C11.8139 20.5073 10.8842 20.34 10.0051 20.015L8.75013 17.51H6.51513C5.69057 16.4849 5.13294 15.2713 4.89213 13.978L6.75013 11.5L5.53413 9.06698C5.92214 8.24157 6.44953 7.48922 7.09313 6.84298C7.99392 5.93904 9.09802 5.26389 10.3131 4.87398L12.7501 6.49998L15.1881 4.87498C16.4029 5.26517 17.5069 5.93989 18.4081 6.84298C19.051 7.48845 19.5781 8.23975 19.9661 9.06398L18.7501 11.5L20.6081 13.978C20.3684 15.2672 19.8136 16.4771 18.9931 17.5Z" fill="#038233"/>
<path d="M9.25 11.5L10.75 15.5H14.75L16.25 11.5L12.75 9L9.25 11.5Z" fill="#038233"/>
</svg>
