<svg width="28" height="28" viewBox="0 0 28 28" fill="none" xmlns="http://www.w3.org/2000/svg">
<path d="M13.9997 27.527C21.4704 27.527 27.5267 21.4708 27.5267 14C27.5267 6.52927 21.4704 0.473022 13.9997 0.473022C6.5289 0.473022 0.472656 6.52927 0.472656 14C0.472656 21.4708 6.5289 27.527 13.9997 27.527Z" fill="#F4F4F4"/>
<path d="M8.7434 3.39398C8.73409 3.32897 8.71205 3.26644 8.67857 3.20994C8.64508 3.15345 8.60079 3.10411 8.54823 3.06474C8.49567 3.02536 8.43587 2.99673 8.37224 2.98047C8.30861 2.96421 8.24241 2.96065 8.1774 2.96998L7.6824 3.03998C7.61739 3.0493 7.55486 3.07133 7.49836 3.10481C7.44187 3.1383 7.39253 3.18259 7.35316 3.23515C7.31378 3.28771 7.28515 3.34751 7.26889 3.41114C7.25263 3.47477 7.24907 3.54097 7.2584 3.60598L7.7584 7.10598C7.77698 7.23725 7.84695 7.35577 7.9529 7.43547C8.05885 7.51517 8.19212 7.54952 8.3234 7.53098L8.8184 7.45998C8.8835 7.45078 8.94614 7.42884 9.00275 7.3954C9.05935 7.36197 9.10881 7.31769 9.14829 7.26512C9.18776 7.21255 9.21648 7.15271 9.2328 7.08902C9.24912 7.02534 9.25273 6.95906 9.2434 6.89398L8.7434 3.39398ZM17.8364 5.05298C17.8071 4.99419 17.7664 4.94176 17.7168 4.89869C17.6672 4.85561 17.6096 4.82273 17.5473 4.80193C17.485 4.78113 17.4192 4.77281 17.3537 4.77745C17.2881 4.78209 17.2242 4.7996 17.1654 4.82898L12.1654 7.32898C12.1066 7.35831 12.0542 7.39894 12.0111 7.44854C11.968 7.49814 11.9352 7.55575 11.9143 7.61806C11.8935 7.68038 11.8852 7.74618 11.8899 7.81171C11.8945 7.87724 11.912 7.94122 11.9414 7.99998L12.1654 8.44698C12.2246 8.56544 12.3285 8.65556 12.4541 8.69756C12.5797 8.73956 12.7168 8.73 12.8354 8.67098L17.8354 6.17098C17.9539 6.11174 18.044 6.00793 18.086 5.88231C18.128 5.7567 18.1184 5.61955 18.0594 5.50098L17.8364 5.05298ZM22.2484 7.94398C22.2384 7.81178 22.1764 7.68895 22.0759 7.6025C21.9753 7.51605 21.8446 7.47306 21.7124 7.48298L21.2134 7.51998C21.0812 7.53019 20.9585 7.59251 20.8722 7.69321C20.7859 7.79392 20.7432 7.92477 20.7534 8.05698L21.2534 14.703C21.2636 14.8348 21.3257 14.9572 21.4259 15.0434C21.5262 15.1297 21.6565 15.1726 21.7884 15.163L22.2874 15.126C22.4196 15.116 22.5424 15.0539 22.6289 14.9534C22.7153 14.8529 22.7583 14.7222 22.7484 14.59L22.2484 7.94398ZM7.3364 9.55298C7.30707 9.49419 7.26644 9.44176 7.21684 9.39869C7.16724 9.35561 7.10963 9.32273 7.04732 9.30193C6.985 9.28113 6.9192 9.27281 6.85367 9.27745C6.78814 9.28209 6.72416 9.2996 6.6654 9.32898L0.8424 12.241C0.766953 12.2787 0.702266 12.3348 0.654359 12.4043C0.606452 12.4737 0.576882 12.5541 0.5684 12.638C0.5554 12.768 0.5444 12.899 0.5344 13.031C0.528201 13.1204 0.546161 13.2099 0.5864 13.29L0.6654 13.448C0.724813 13.5663 0.828708 13.6562 0.954305 13.698C1.0799 13.7398 1.21695 13.7301 1.3354 13.671L7.3354 10.671C7.45386 10.6117 7.54398 10.5079 7.58598 10.3823C7.62798 10.2567 7.61842 10.1196 7.5594 10.001L7.3364 9.55298ZM12.3784 11.852C12.3217 11.8189 12.259 11.7973 12.1939 11.7884C12.1288 11.7795 12.0626 11.7836 11.9991 11.8003C11.9356 11.817 11.876 11.8461 11.8237 11.8858C11.7714 11.9256 11.7275 11.9752 11.6944 12.032L11.4424 12.464C11.4093 12.5207 11.3877 12.5834 11.3788 12.6485C11.3699 12.7136 11.374 12.7798 11.3907 12.8433C11.4074 12.9068 11.4365 12.9664 11.4762 13.0187C11.516 13.071 11.5657 13.1149 11.6224 13.148L17.6224 16.648C17.6791 16.6811 17.7418 16.7027 17.8069 16.7116C17.872 16.7204 17.9382 16.7164 18.0017 16.6997C18.0652 16.683 18.1248 16.6539 18.1771 16.6142C18.2294 16.5744 18.2733 16.5247 18.3064 16.468L18.5584 16.036C18.5915 15.9793 18.6131 15.9166 18.622 15.8515C18.6309 15.7864 18.6268 15.7202 18.6101 15.6567C18.5934 15.5932 18.5643 15.5336 18.5246 15.4813C18.4848 15.429 18.4351 15.3851 18.3784 15.352L12.3784 11.852ZM8.2934 13.481C8.22793 13.4755 8.16202 13.483 8.09944 13.503C8.03687 13.523 7.97884 13.5551 7.92869 13.5976C7.87854 13.64 7.83725 13.6919 7.80717 13.7503C7.77709 13.8087 7.75882 13.8725 7.7534 13.938L7.2534 19.938C7.24792 20.0034 7.2554 20.0694 7.2754 20.1319C7.29541 20.1945 7.32755 20.2525 7.36999 20.3027C7.41243 20.3528 7.46434 20.3941 7.52275 20.4242C7.58116 20.4543 7.64493 20.4726 7.7104 20.478L8.2084 20.519C8.34046 20.5301 8.47152 20.4882 8.57278 20.4027C8.67404 20.3172 8.7372 20.195 8.7484 20.063L9.2484 14.063C9.25388 13.9975 9.2464 13.9316 9.2264 13.869C9.20639 13.8064 9.17425 13.7484 9.13181 13.6983C9.08937 13.6481 9.03746 13.6068 8.97905 13.5768C8.92064 13.5467 8.85688 13.5284 8.7914 13.523L8.2934 13.481ZM26.8364 15.553C26.8071 15.4942 26.7664 15.4418 26.7168 15.3987C26.6672 15.3556 26.6096 15.3227 26.5473 15.3019C26.485 15.2811 26.4192 15.2728 26.3537 15.2774C26.2881 15.2821 26.2242 15.2996 26.1654 15.329L23.1654 16.829C23.1066 16.8583 23.0542 16.8989 23.0111 16.9485C22.968 16.9981 22.9352 17.0557 22.9144 17.1181C22.8935 17.1804 22.8852 17.2462 22.8899 17.3117C22.8945 17.3772 22.912 17.4412 22.9414 17.5L23.1654 17.948C23.2248 18.0663 23.3287 18.1562 23.4543 18.198C23.5799 18.2398 23.7169 18.2301 23.8354 18.171L26.8354 16.671C26.9539 16.6117 27.044 16.5079 27.086 16.3823C27.128 16.2567 27.1184 16.1196 27.0594 16.001L26.8364 15.553ZM2.0584 16.499C1.96981 16.4003 1.84566 16.3409 1.71327 16.3338C1.58087 16.3267 1.45107 16.3724 1.3524 16.461L1.0414 16.741C0.974168 16.8015 0.924616 16.8791 0.898024 16.9656C0.871432 17.0521 0.868798 17.1441 0.8904 17.232L0.9344 17.409C0.954875 17.4864 0.993628 17.5577 1.0474 17.617L5.4434 22.502C5.53213 22.6005 5.65635 22.6597 5.78874 22.6667C5.92113 22.6736 6.05086 22.6277 6.1494 22.539L6.5204 22.205C6.61905 22.1164 6.67847 21.9922 6.68559 21.8598C6.69272 21.7275 6.64697 21.5976 6.5584 21.499L2.0584 16.499ZM18.8504 19.564C18.8229 19.5043 18.784 19.4505 18.7357 19.4059C18.6875 19.3612 18.6309 19.3265 18.5692 19.3038C18.5075 19.281 18.442 19.2707 18.3763 19.2733C18.3106 19.2759 18.2461 19.2914 18.1864 19.319L11.6864 22.319C11.6267 22.3464 11.5729 22.3854 11.5283 22.4337C11.4837 22.4819 11.449 22.5385 11.4262 22.6002C11.4034 22.6618 11.3931 22.7274 11.3957 22.7931C11.3983 22.8588 11.4138 22.9233 11.4414 22.983L11.6514 23.437C11.679 23.4966 11.718 23.5502 11.7663 23.5948C11.8146 23.6393 11.8712 23.6739 11.9328 23.6966C11.9945 23.7192 12.06 23.7295 12.1257 23.7269C12.1913 23.7242 12.2558 23.7086 12.3154 23.681L18.8154 20.681C18.9356 20.6253 19.0288 20.5243 19.0745 20.4C19.1203 20.2756 19.1148 20.1383 19.0594 20.018L18.8504 19.564ZM21.3144 20.473C21.1829 20.4566 21.0502 20.4931 20.9456 20.5745C20.8409 20.6558 20.7729 20.7754 20.7564 20.907L20.2564 24.907C20.24 25.0385 20.2765 25.1712 20.3579 25.2758C20.4393 25.3805 20.5589 25.4485 20.6904 25.465L20.8804 25.489C20.9955 25.5037 21.1122 25.4779 21.2104 25.416C21.3284 25.341 21.4454 25.264 21.5614 25.186C21.6204 25.1461 21.6702 25.094 21.7074 25.0333C21.7447 24.9726 21.7685 24.9047 21.7774 24.834L22.2444 21.094C22.2527 21.0288 22.248 20.9626 22.2306 20.8992C22.2133 20.8358 22.1836 20.7764 22.1433 20.7245C22.103 20.6726 22.0528 20.6291 21.9957 20.5966C21.9386 20.5641 21.8756 20.5431 21.8104 20.535L21.3144 20.473ZM7.6774 23.97C7.58364 23.8762 7.45648 23.8236 7.3239 23.8236C7.19132 23.8236 7.06416 23.8762 6.9704 23.97L6.4604 24.48C6.408 24.5323 6.36787 24.5956 6.34291 24.6652C6.31794 24.7349 6.30877 24.8093 6.31604 24.883C6.32331 24.9566 6.34685 25.0278 6.38496 25.0913C6.42307 25.1547 6.47479 25.2089 6.5364 25.25C6.6834 25.349 6.8334 25.444 6.9844 25.536C7.0801 25.5944 7.19268 25.619 7.30404 25.6058C7.41539 25.5925 7.51907 25.5422 7.5984 25.463L8.0304 25.031C8.12414 24.9372 8.17679 24.8101 8.17679 24.6775C8.17679 24.5449 8.12414 24.4177 8.0304 24.324L7.6774 23.97ZM11.4504 24.4C11.3443 24.3204 11.211 24.2863 11.0797 24.305C10.9484 24.3238 10.83 24.3939 10.7504 24.5L10.4504 24.9C10.3708 25.0061 10.3367 25.1394 10.3554 25.2707C10.3742 25.402 10.4443 25.5204 10.5504 25.6C11.6484 26.424 12.9584 26.957 14.1204 27.285C14.3504 27.349 14.5754 27.407 14.7944 27.457C14.8423 27.4678 14.8915 27.4715 14.9404 27.468C15.5401 27.4268 16.1365 27.3456 16.7254 27.225C16.8441 27.2011 16.9501 27.135 17.0237 27.0389C17.0974 26.9428 17.1336 26.8233 17.1258 26.7025C17.118 26.5817 17.0666 26.4678 16.9812 26.382C16.8958 26.2962 16.7822 26.2443 16.6614 26.236C15.9393 26.1736 15.225 26.0413 14.5284 25.841C13.4744 25.544 12.3524 25.076 11.4504 24.4Z" fill="#BEBEBE"/>
<path d="M5.243 4.68998L7.873 4.03198C7.95751 4.01066 8.03887 3.97838 8.115 3.93598L11.775 1.90298C11.9183 1.8232 12.0397 1.70942 12.1287 1.57166C12.2176 1.4339 12.2713 1.27638 12.285 1.11298C9.49817 1.48107 6.90656 2.74528 4.901 4.71498C5.01565 4.72607 5.13135 4.71827 5.243 4.68998ZM1.505 17.599C1.16908 16.4289 0.999084 15.2174 1 14C1 12.573 1.23 11.2 1.655 9.91598L2 12.398V17.5L1.505 17.599ZM22.36 23.956C20.5929 25.444 18.4598 26.4322 16.182 26.818L16.5 26.5L21 24.5L22.36 23.956ZM26.523 10.5C26.8404 11.6395 27.0009 12.817 27 14C27.002 15.5685 26.7194 17.1243 26.166 18.592C25.736 17.963 25.366 16.95 26 16C26.8 14.8 26.667 11.833 26.5 10.5H26.523ZM20.808 2.92298C21.2 3.16498 21.578 3.42698 21.942 3.70698L23.578 6.32498C23.6982 6.51673 23.7498 6.74357 23.7244 6.96844C23.6989 7.19331 23.598 7.40291 23.438 7.56298L22.552 8.44798C22.3943 8.60547 22.1885 8.70576 21.9673 8.73294C21.7461 8.76012 21.5221 8.71261 21.331 8.59798L17.485 6.29098C17.3371 6.20211 17.2147 6.07648 17.1297 5.92631C17.0447 5.77614 17 5.60653 17 5.43398V3.61698C17 3.47637 17.0296 3.33734 17.087 3.20896C17.1444 3.08059 17.2281 2.96575 17.3329 2.87195C17.4376 2.77815 17.561 2.70749 17.6949 2.66459C17.8288 2.62169 17.9702 2.60751 18.11 2.62298L20.808 2.92298ZM7.629 7.05698L5.392 10.411C5.27731 10.5832 5.21889 10.7869 5.2248 10.9937C5.23071 11.2006 5.30066 11.4005 5.425 11.566L7.54 14.386C7.67179 14.5623 7.85809 14.6902 8.06999 14.7499C8.2819 14.8096 8.50757 14.7976 8.712 14.716L12.372 13.251C12.5574 13.1767 12.7163 13.0486 12.8282 12.8832C12.9401 12.7178 13 12.5227 13 12.323V8.31998C12.9999 8.08888 12.9197 7.86497 12.7731 7.68631C12.6265 7.50765 12.4226 7.38527 12.196 7.33998L8.656 6.63098C8.46188 6.59238 8.26066 6.61225 8.07784 6.68809C7.89502 6.76392 7.73881 6.8923 7.629 7.05698ZM12.41 23.124L12.15 24.954C12.068 25.522 11.52 25.944 10.949 25.896C9.779 25.798 8.084 25.584 7 24.5C5.9 23.4 5.428 22.48 5.188 21.74C5.05 21.31 5.28 20.86 5.683 20.658L7.481 19.759C7.63875 19.6802 7.81451 19.6446 7.99048 19.6556C8.16645 19.6667 8.33637 19.7241 8.483 19.822L11.976 22.15C12.133 22.2547 12.2572 22.4018 12.3342 22.5741C12.4112 22.7465 12.4378 22.9371 12.411 23.124M17 20.198V16.177C17.0001 15.9772 17.0601 15.782 17.1722 15.6165C17.2843 15.4511 17.4434 15.3231 17.629 15.249L21.271 13.792C21.4789 13.7088 21.7086 13.6978 21.9235 13.7607C22.1383 13.8237 22.3258 13.9568 22.456 14.139L24.119 16.467C24.2321 16.6254 24.2965 16.8134 24.3044 17.0079C24.3122 17.2024 24.263 17.395 24.163 17.562L21.871 21.382C21.763 21.5621 21.6011 21.7037 21.4081 21.7866C21.2152 21.8695 21.001 21.8896 20.796 21.844L17.783 21.174C17.5609 21.1246 17.3623 21.001 17.22 20.8236C17.0776 20.6461 17 20.4255 17 20.198Z" fill="#0BAF08"/>
<path fill-rule="evenodd" clip-rule="evenodd" d="M28 14C28 21.732 21.732 28 14 28C6.268 28 0 21.732 0 14C0 6.268 6.268 0 14 0C21.732 0 28 6.268 28 14ZM14 27C21.18 27 27 21.18 27 14C27 6.82 21.18 1 14 1C6.82 1 1 6.82 1 14C1 21.18 6.82 27 14 27Z" fill="#1C6848"/>
</svg>
